<?xml version="1.0" encoding="UTF-8"?>
<svg width="136" height="27" fill="none" version="1.1" viewBox="0 0 136 27" xmlns="http://www.w3.org/2000/svg">
 <g id="Group" fill="#fff">
  <path id="Vector" d="m12.161 8.5142c-1.8131-1.4823-3.5504-2.1855-5.0042-2.1855-1.4537 0-2.4881 0.67522-2.4881 2.1136 0 1.1667 0.55913 1.8858 3.4346 3.9275 3.6223 2.589 5.5074 4.4708 5.5074 7.5353 0 3.5959-2.7318 6.3847-6.9132 6.3847-2.8036 0-5.2918-1.2386-6.6976-2.2854l0.66297-1.0348c1.0623 1.0948 2.6159 2.0297 4.0098 2.0297 1.9689 0 2.9634-1.1347 2.9634-2.605 0-1.2945-0.76281-2.1016-3.5345-4.2152-2.8635-2.1735-3.9858-4.2271-3.9858-6.5884 0-3.464 2.4722-6.2408 6.6416-6.2408 1.913 0 3.854 0.59132 6.0945 2.1296l-0.691 1.0348z"/>
  <path d="m25.089 5.7534c5.0441 0 8.2511 2.2294 8.2511 6.0531 0 3.8236-2.9754 6.7442-7.5602 6.7442-1.1223 0-2.1846-0.1878-3.0033-0.3596v7.6952h-6.8574v-20.133h9.1738-4e-3zm-2.3164 11.619c0.5192 0.0999 1.1062 0.1598 1.5975 0.1598 0.1717 0 0.3434-0.016 0.4872-0.028 0.5032-0.6313 1.3499-2.4292 1.3499-5.8692 0-4.9464-1.8251-4.9464-2.7876-4.9464h-0.647v10.684z"/>
  <path d="m41.076 19.761h-6.0386c-0.6749 2.589-1.3499 5.3938-1.5376 6.125h-1.3818l6.0825-20.133h6.0825l5.4755 20.133h-7.045l-1.6375-6.125zm-0.2596-0.9509-2.6159-9.8087-2.3444 7.795c-0.1717 0.5913-0.1997 0.7032-0.5591 2.0137h5.5194z"/>
  <path d="m52.059 5.7534h5.5074c6.1105 0 7.5762 3.0645 7.5762 5.4378 0 3.0045-2.1846 4.7026-4.0816 5.3658l5.0761 9.3333h-3.3508l-4.6568-8.8459c-1.1342-0.0559-2.2565-0.1718-3.1351-0.2716v9.1175h-2.9314v-20.137h-4e-3zm2.9314 10.18c0.9785 0.0879 2.1007 0.1439 3.0353 0.1439 0.4313 0 0.8187-0.016 1.1502-0.044 1.1941-0.4595 2.9035-1.726 2.9035-4.6586 0-4.2711-3.5665-4.6867-5.5074-4.6867h-1.5816v9.2494-4e-3z"/>
  <path d="m77.164 19.761h-7.4324c-1.0224 3.0485-1.7972 5.5097-1.9569 6.125h-1.1782l6.9572-20.133h1.9409l6.8134 20.133h-3.0912l-2.0568-6.125h4e-3zm-0.3155-0.9509-3.3627-10.008-3.2789 9.593c-0.044 0.1438-0.0999 0.2717-0.1438 0.4155h6.7854z"/>
  <path d="m84.656 5.7534h2.9314v19.198h2.6439c1.2501 0 4.9323-0.0879 5.7511-0.1159v1.0508h-11.326v-20.133z"/>
  <path d="m98.327 5.7534h2.9311v20.133h-2.9311v-20.133z"/>
  <path d="m120.19 24.044c-1.382 1.0787-3.695 2.2454-6.398 2.2454-5.332 0-9.446-4.7745-9.446-10.412 0-5.6376 3.954-10.528 9.346-10.528 1.438 0 4.069 0.34361 5.907 1.1786l-0.891 2.605c-1.166-0.7911-4.629-2.7888-5.491-2.8927-4.01 0.4315-5.895 3.3641-5.895 8.3864 0 6.1409 2.847 10.44 7.476 10.44 1.05 0 2.129-0.2437 2.46-0.4755v-7.0039h2.932v6.4566z"/>
  <path d="m123.65 5.7534h11.227v1.0508c-0.819-0.02797-4.585-0.11587-5.751-0.11587h-2.544v8.4143h1.625c0.935 0 4.916-0.0279 5.751-0.0559v1.0508c-0.835-0.028-4.816-0.0559-5.751-0.0559h-1.625v8.9177h2.675c1.151 0 4.917-0.0879 5.752-0.1158v1.0507h-11.359v-20.141zm5.795-5.7534h3.191c-0.95 1.4224-1.913 2.8048-2.919 4.1832h-0.863l0.591-4.1832z"/>
 </g>
</svg>
